<?xml version="1.0" standalone="no"?>
<!DOCTYPE svg PUBLIC "-//W3C//DTD SVG 20010904//EN"
 "http://www.w3.org/TR/2001/REC-SVG-20010904/DTD/svg10.dtd">
<svg version="1.0" xmlns="http://www.w3.org/2000/svg"
 width="768.000000pt" height="784.000000pt" viewBox="0 0 768.000000 784.000000"
 preserveAspectRatio="xMidYMid meet">

<g transform="translate(0.000000,784.000000) scale(0.100000,-0.100000)"
fill="#000000" stroke="none">
<path d="M4973 7819 c-24 -15 -45 -46 -78 -116 -58 -122 -113 -202 -193 -283
l-64 -64 -21 29 c-44 63 -175 189 -241 233 -79 52 -216 102 -282 102 -82 0
-134 -44 -134 -112 0 -42 2 -42 -66 -29 -172 33 -523 43 -724 21 -427 -46
-833 -198 -1154 -433 -39 -29 -84 -61 -101 -72 -43 -27 -239 -225 -321 -325
-200 -241 -365 -527 -493 -852 -34 -85 -52 -116 -89 -152 -82 -81 -222 -141
-399 -170 -251 -43 -439 -175 -542 -382 -31 -62 -74 -185 -67 -191 2 -2 23 10
47 26 93 65 237 76 394 31 181 -52 350 -11 486 117 l66 63 6 -45 c13 -90 81
-189 172 -249 30 -21 102 -55 160 -76 118 -44 180 -82 243 -149 41 -43 112
-169 112 -197 0 -36 21 -7 40 54 30 95 36 211 16 295 -26 110 -58 161 -175
276 -139 137 -166 188 -166 311 0 127 26 174 179 323 66 65 115 117 107 115
-22 -5 -89 98 -112 172 -70 218 3 547 153 699 126 126 250 132 373 19 114
-103 152 -249 92 -350 -32 -56 -61 -78 -100 -78 -70 0 -106 65 -115 203 -4 78
-7 90 -30 107 -35 28 -98 26 -144 -5 -70 -48 -143 -170 -159 -266 -20 -124 34
-279 129 -372 l49 -48 61 35 c33 20 63 36 66 36 4 0 66 25 138 56 173 73 211
81 478 104 189 17 245 18 355 10 321 -26 647 -100 968 -220 203 -75 210 -79
202 -98 -29 -78 -146 -217 -254 -301 -85 -66 -87 -135 -8 -208 51 -46 172
-107 245 -122 74 -15 208 -14 289 3 98 21 228 70 308 117 l69 40 195 -193
c426 -419 679 -676 735 -746 71 -90 163 -167 253 -211 72 -37 187 -71 236 -71
57 0 125 63 158 145 17 45 15 171 -5 245 -10 36 -37 106 -61 156 l-43 90 19
72 c34 127 41 207 29 332 -24 251 -81 448 -196 680 -140 281 -312 509 -601
797 l-202 202 25 51 c92 183 61 456 -78 686 -62 102 -72 113 -114 134 -49 25
-81 25 -121 -1z m136 -18 c36 -26 122 -169 161 -265 36 -91 60 -206 60 -286 0
-75 -25 -192 -53 -245 l-22 -40 -7 125 c-15 254 -52 455 -99 541 -39 71 -115
92 -102 28 7 -39 -2 -72 -32 -107 l-25 -30 35 -6 c39 -8 65 -29 65 -54 0 -9
-26 -41 -57 -71 -32 -30 -49 -51 -38 -46 79 33 125 8 132 -72 11 -135 -81
-137 -215 -6 -72 71 -149 129 -158 121 -2 -3 93 -101 212 -218 200 -199 219
-221 261 -303 28 -54 54 -92 67 -97 40 -15 142 -97 254 -204 61 -60 112 -112
112 -117 0 -4 -17 -11 -37 -14 -64 -11 -73 -16 -73 -37 0 -41 124 -128 207
-144 25 -5 37 -1 57 19 30 30 28 32 111 -98 84 -131 162 -282 179 -349 18 -66
10 -124 -21 -158 -25 -28 -71 -20 -240 44 -123 46 -147 52 -218 52 -75 1 -175
-18 -175 -33 0 -4 19 -16 43 -28 95 -46 176 -146 223 -275 9 -24 19 -90 23
-148 l6 -105 53 -7 c141 -21 233 -98 248 -211 9 -66 -20 -180 -71 -283 -33
-65 -41 -90 -32 -96 34 -23 49 -29 68 -23 26 9 87 91 148 199 49 87 49 88 65
65 27 -42 77 -179 92 -252 18 -84 12 -153 -19 -216 -43 -87 -93 -101 -186 -51
-117 63 -268 213 -480 476 l-80 99 52 5 c64 6 75 13 93 55 19 47 1 134 -40
189 -36 48 -108 88 -151 84 -41 -4 -75 -56 -75 -117 0 -64 39 -129 190 -318
228 -287 446 -490 545 -509 39 -7 38 -24 -2 -24 -43 0 -144 30 -221 66 -90 41
-167 113 -342 319 -220 260 -432 529 -420 533 6 2 31 -1 55 -7 44 -11 75 -7
75 10 0 18 -84 100 -127 126 -65 38 -155 63 -254 70 l-88 6 -46 47 -47 47 46
29 c25 16 46 33 46 37 0 4 -34 -16 -77 -44 -96 -65 -235 -131 -333 -159 -106
-30 -265 -37 -354 -16 -136 32 -273 123 -291 193 -10 41 23 90 99 148 72 54
160 157 202 234 12 24 25 45 28 48 2 3 29 -16 59 -42 53 -46 55 -49 72 -130
32 -149 5 -235 -71 -235 -43 0 -60 32 -77 142 l-12 83 -6 -76 c-7 -86 -29
-141 -63 -157 -31 -14 -62 7 -71 48 -8 35 -10 36 -52 11 -67 -41 -49 -91 53
-148 119 -66 225 -67 411 -4 117 39 304 121 298 131 -2 4 -18 10 -35 13 -57
12 -140 60 -184 107 -62 66 -94 136 -117 252 -34 177 -22 302 35 363 44 47 86
52 199 26 112 -26 201 -73 245 -130 37 -49 42 -76 12 -66 -36 11 -107 -29
-129 -74 -31 -60 -27 -97 13 -137 41 -41 82 -44 140 -11 61 34 90 98 89 197
-1 48 -7 89 -16 107 -23 44 -88 98 -164 136 -149 75 -285 90 -385 43 -108 -51
-197 -182 -234 -344 -10 -43 -19 -78 -20 -80 -1 -2 -21 6 -43 18 -77 39 -299
344 -411 565 -73 143 -126 305 -141 429 -30 241 53 432 248 572 l61 45 64 -11
c35 -5 66 -10 70 -10 3 0 9 -19 13 -42 4 -22 41 -106 81 -186 41 -79 74 -147
74 -152 0 -4 -14 -10 -30 -14 -72 -14 -150 -90 -196 -190 -49 -108 -39 -216
28 -306 18 -24 43 -62 56 -84 48 -86 111 -128 223 -152 88 -19 207 -13 326 17
137 33 265 23 389 -30 42 -18 54 -30 73 -68 12 -25 27 -80 33 -122 26 -179
-69 -401 -186 -432 -53 -14 -137 -3 -177 24 -79 53 -97 169 -49 315 30 89 20
108 -33 68 -173 -132 -147 -392 49 -491 51 -26 70 -30 139 -30 67 0 88 4 130
27 207 108 244 393 89 675 -83 149 -185 175 -541 133 -86 -11 -135 -11 -220
-2 -191 19 -230 42 -258 147 -34 123 -6 244 74 324 33 33 107 81 125 81 11 0
28 -146 24 -209 -6 -83 -38 -156 -99 -225 -22 -25 -36 -46 -30 -46 9 0 74 81
106 134 9 15 14 15 55 -1 81 -29 127 2 138 92 2 25 7 45 9 45 3 0 32 -25 66
-55 248 -225 467 -132 437 184 -3 34 -2 60 2 59 11 -4 186 -235 240 -317 66
-101 64 -108 -10 -65 -49 29 -131 41 -207 30 -62 -10 -57 -25 30 -99 122 -103
493 -341 524 -335 11 2 17 16 19 42 3 32 -9 64 -69 180 -128 250 -269 447
-463 644 -77 79 -228 215 -264 238 -2 1 20 26 48 56 64 66 153 198 182 269 30
74 47 99 83 121 36 23 82 19 124 -11z m-1577 -233 c-222 -363 -197 -768 70
-1155 64 -92 226 -271 316 -348 39 -33 69 -61 68 -62 -1 -1 -73 23 -161 53
-294 102 -622 175 -852 190 -165 11 -330 70 -371 132 -14 22 -17 54 -17 202
-1 263 -12 288 -208 484 -88 88 -116 121 -107 130 6 6 41 11 78 11 170 -2 495
-197 577 -346 20 -37 29 -71 33 -119 4 -60 2 -69 -21 -95 -22 -26 -31 -29 -83
-29 -94 2 -113 43 -73 164 11 34 18 69 15 76 -17 44 -115 -17 -147 -91 -56
-130 -22 -229 100 -287 58 -27 71 -30 136 -26 152 10 225 92 225 255 0 141
-49 242 -184 381 -140 145 -313 233 -514 261 l-57 8 70 33 c210 99 455 163
780 203 17 2 101 5 188 6 l159 1 -20 -32z m-1432 -505 c273 -100 420 -253 420
-436 0 -92 -74 -262 -155 -354 -35 -39 -58 -56 -93 -67 -26 -7 -105 -37 -176
-67 l-129 -53 -54 30 c-57 30 -138 105 -160 149 -20 37 -26 106 -15 149 16 58
69 139 109 166 54 37 61 8 26 -103 -20 -66 -14 -167 13 -204 11 -16 40 -38 65
-51 39 -21 53 -23 123 -18 216 15 342 166 306 366 -28 160 -147 335 -267 396
-52 25 -68 29 -153 29 -52 0 -108 -4 -124 -8 -27 -8 -28 -7 -15 9 8 10 40 39
72 66 67 55 58 55 207 1z m3394 -358 c97 -97 247 -269 285 -325 13 -19 -108
96 -270 255 -253 249 -329 333 -329 361 0 9 213 -188 314 -291z m-4013 -117
c-20 -54 -34 -214 -28 -333 l6 -124 -34 6 c-77 13 -158 -69 -266 -268 -88
-165 -153 -252 -223 -302 -27 -19 -44 -22 -136 -22 -89 0 -113 -4 -158 -24
-62 -28 -97 -66 -113 -124 -28 -105 48 -182 203 -203 77 -11 191 53 229 128
23 45 39 42 39 -7 0 -28 -10 -44 -64 -97 -139 -138 -300 -180 -485 -126 -57
16 -104 22 -186 22 -105 1 -114 -1 -175 -31 -36 -17 -66 -30 -68 -29 -8 9 62
167 98 223 97 148 272 264 450 298 235 45 347 89 438 172 48 43 59 62 111 188
98 238 209 450 319 613 45 65 57 77 43 40z m12 -610 c21 -25 22 -81 1 -102
-17 -18 -79 -21 -118 -6 -21 8 -25 6 -28 -13 -6 -38 10 -91 33 -110 12 -9 38
-20 59 -23 l38 -6 -29 -46 c-44 -70 -62 -134 -57 -211 6 -117 63 -206 225
-351 79 -72 133 -206 133 -331 0 -49 -25 -181 -40 -208 -5 -10 -18 7 -40 55
-60 124 -176 223 -320 269 -98 32 -173 76 -236 139 -91 91 -127 203 -88 278
19 37 25 31 49 -51 25 -83 83 -173 135 -207 56 -37 132 -43 178 -14 76 47 76
138 2 278 -90 169 -132 308 -131 437 0 124 38 195 126 236 46 22 82 18 108
-13z m-340 -507 c-5 -47 20 -156 35 -149 4 2 24 12 44 22 49 25 81 12 98 -39
10 -31 9 -44 -5 -80 -27 -71 -71 -69 -144 7 -72 75 -97 154 -70 225 9 25 37
63 45 63 2 0 0 -22 -3 -49z m-110 -2 c-56 -95 -139 -156 -198 -145 -101 19
-124 134 -30 152 44 8 89 -10 118 -47 l23 -29 49 50 c27 27 51 50 53 50 2 0
-5 -14 -15 -31z m4514 -280 c40 -15 92 -67 114 -114 19 -40 25 -130 11 -151
-14 -21 -51 -34 -96 -34 -40 0 -48 4 -75 39 -73 92 -91 186 -45 240 28 33 46
37 91 20z"/>
<path d="M3795 7419 c-22 -5 -44 -14 -48 -18 -12 -12 56 -57 114 -76 65 -22
99 -8 99 39 0 18 -7 39 -15 46 -20 17 -99 22 -150 9z"/>
<path d="M3675 7206 c-22 -7 -51 -18 -64 -25 -22 -12 -20 -14 50 -38 78 -26
130 -26 157 1 19 19 8 34 -42 57 -48 22 -48 22 -101 5z"/>
<path d="M3687 6926 c-44 -16 -117 -64 -117 -78 0 -27 110 -37 165 -14 42 18
80 73 63 93 -13 17 -62 16 -111 -1z"/>
<path d="M3806 6649 c-16 -4 -42 -24 -58 -44 -16 -19 -38 -35 -49 -35 -34 0
-20 -18 28 -34 101 -35 157 -10 151 66 -3 47 -24 60 -72 47z"/>
<path d="M3965 6395 c-33 -17 -79 -80 -70 -95 19 -31 152 11 182 57 12 18 12
23 -2 37 -20 20 -70 20 -110 1z"/>
<path d="M5431 6181 c-17 -16 -31 -32 -31 -36 0 -28 63 -92 133 -134 l40 -25
-7 40 c-20 115 -54 184 -90 184 -8 0 -28 -13 -45 -29z"/>
<path d="M5770 6035 c0 -114 46 -179 123 -173 52 4 65 23 48 77 -16 54 -57
100 -120 135 l-51 27 0 -66z"/>
<path d="M5160 6052 c-17 -13 -20 -24 -15 -45 7 -26 96 -116 136 -138 17 -9
19 -6 19 24 0 56 -28 134 -57 156 -32 26 -54 26 -83 3z"/>
<path d="M5179 5636 c-65 -23 -229 -113 -229 -126 0 -8 13 -14 205 -97 234
-101 371 -153 404 -153 41 0 66 37 58 87 -9 51 -78 192 -116 235 -71 81 -190
101 -322 54z"/>
<path d="M3335 7411 c-76 -26 -80 -30 -99 -72 -11 -26 -20 -68 -20 -101 -1
-32 -2 -58 -4 -58 -2 0 -22 15 -45 34 -94 76 -133 81 -252 35 -44 -16 -81 -32
-82 -33 -2 -2 38 -27 89 -56 229 -130 331 -258 330 -413 -1 -101 -47 -193
-144 -291 -40 -40 -86 -83 -103 -95 l-30 -22 70 5 c39 3 96 6 127 6 37 0 62 5
71 15 9 8 25 49 38 90 12 42 25 78 29 80 4 3 24 -22 44 -55 49 -79 116 -137
183 -156 88 -25 91 -16 23 78 -33 46 -82 128 -109 183 -85 174 -114 293 -114
460 1 129 22 234 63 324 17 35 30 65 30 67 0 7 -12 3 -95 -25z"/>
<path d="M5492 5144 c-12 -8 -22 -23 -22 -33 0 -21 63 -127 94 -159 59 -61 97
46 49 140 -25 50 -86 77 -121 52z m101 -42 c27 -29 14 -62 -23 -62 -31 0 -90
48 -90 74 0 42 71 34 113 -12z"/>
<path d="M3334 5905 c-76 -37 -177 -129 -383 -346 -400 -421 -420 -440 -536
-495 -60 -29 -80 -34 -146 -34 -84 0 -183 23 -298 68 -81 33 -101 32 -101 -3
0 -39 19 -77 76 -151 56 -74 78 -88 153 -98 62 -9 93 -28 136 -84 50 -66 102
-95 175 -96 76 -1 118 27 213 146 93 117 160 174 229 194 81 24 189 79 257
130 59 44 103 104 172 234 30 56 62 62 67 14 2 -23 -8 -48 -38 -95 -78 -120
-119 -217 -137 -326 -13 -80 -14 -111 -5 -145 l11 -43 -5 55 c-11 126 49 310
151 464 38 57 46 114 21 135 -22 19 -51 -5 -82 -67 -47 -92 -99 -166 -145
-205 -54 -47 -196 -119 -270 -138 -44 -12 -67 -26 -128 -84 -41 -38 -91 -92
-111 -120 -54 -73 -90 -106 -137 -127 -72 -32 -161 -3 -221 71 -52 65 -90 89
-162 100 -61 9 -68 14 -113 63 -49 54 -97 138 -97 170 0 26 24 23 121 -16 110
-44 187 -59 290 -55 78 4 90 7 164 49 67 37 106 71 240 210 448 462 569 578
636 610 109 51 178 37 248 -53 115 -150 198 -514 227 -1000 l6 -117 -53 26
c-77 39 -182 45 -237 14 -21 -12 -50 -39 -63 -59 l-24 -38 -28 39 c-31 43 -94
77 -142 78 -53 0 -145 -29 -191 -60 -48 -34 -92 -100 -100 -152 -4 -23 -12
-34 -24 -35 -28 -2 -94 -48 -137 -93 -56 -60 -108 -151 -134 -233 -22 -71 -23
-73 -103 -132 -221 -164 -428 -336 -542 -449 -107 -107 -155 -193 -162 -286
-6 -80 15 -120 89 -169 88 -59 216 -97 604 -181 471 -101 543 -125 642 -214
63 -57 116 -167 139 -291 33 -182 38 -189 92 -135 37 37 96 173 95 220 -1 19
-10 55 -22 80 -26 57 -26 86 -1 157 27 77 26 147 -2 203 -32 62 -87 89 -225
106 -154 20 -238 47 -298 98 -77 64 -115 90 -179 125 -100 53 -155 64 -285 59
-64 -3 -122 -3 -128 -1 -18 6 -16 27 5 46 14 13 48 17 172 20 136 4 165 8 235
31 116 40 166 70 240 147 l65 67 51 -54 c63 -66 118 -99 200 -120 81 -21 147
-12 237 31 l71 34 98 -55 c159 -90 610 -309 718 -351 95 -36 106 -38 216 -38
107 0 118 2 152 25 51 34 79 96 84 184 6 92 -27 283 -114 666 -65 284 -67 300
-68 430 0 129 1 138 29 195 36 74 135 176 232 238 96 62 105 74 74 97 -32 24
-105 34 -188 25 -80 -8 -92 -14 -140 -67 -45 -49 -85 -68 -149 -68 -55 0 -136
-34 -170 -71 -52 -57 -56 -137 -14 -265 16 -49 35 -126 42 -171 11 -75 11 -88
-9 -155 -57 -197 -50 -316 28 -476 46 -95 62 -152 43 -152 -28 0 -70 42 -86
85 -30 83 -108 217 -156 268 -25 27 -46 58 -48 70 -9 75 -17 108 -43 191 -35
108 -107 226 -166 273 -45 35 -104 67 -111 60 -2 -3 17 -15 42 -28 98 -49 191
-186 239 -352 36 -125 37 -187 2 -187 -18 0 -62 85 -102 194 -40 110 -43 103
-8 -18 21 -70 24 -93 15 -112 -6 -13 -15 -24 -20 -24 -14 0 -47 50 -80 122
l-30 63 0 -57 c-1 -31 -4 -63 -7 -72 -11 -28 -42 -17 -75 24 -18 22 -35 38
-38 35 -10 -11 73 -85 96 -85 23 0 28 11 36 70 2 23 5 21 26 -20 27 -53 59
-90 77 -90 8 0 20 12 27 27 l14 27 18 -38 c10 -20 27 -43 38 -51 18 -13 23
-13 38 1 15 14 20 11 58 -33 40 -45 161 -269 161 -298 0 -18 67 -58 85 -51 26
10 16 55 -36 160 -36 72 -53 120 -58 163 -10 82 3 215 30 307 20 69 21 84 11
154 -6 42 -25 121 -42 176 -45 147 -39 206 27 267 41 38 64 48 129 55 92 9
119 21 176 78 53 53 54 53 131 60 107 10 187 -7 187 -38 0 -7 -36 -36 -79 -64
-142 -92 -240 -209 -262 -311 -21 -99 -6 -254 44 -476 122 -532 149 -704 127
-810 -22 -105 -84 -145 -225 -145 -105 0 -225 42 -500 175 -137 65 -499 257
-513 270 -2 2 14 21 36 44 86 89 133 225 135 394 1 98 0 104 -32 160 -19 32
-36 56 -39 53 -2 -3 2 -16 10 -28 13 -21 12 -25 -4 -40 -17 -17 -18 -16 -18
25 0 39 4 45 48 79 27 20 57 53 67 74 42 87 25 239 -34 306 -27 31 -29 39 -35
163 -26 476 -112 860 -228 1006 -22 28 -54 59 -71 70 -45 27 -119 25 -183 -6z
m22 -1166 c40 -27 74 -85 74 -126 0 -64 -67 -133 -128 -133 -52 0 -112 56
-112 104 0 29 50 76 81 76 54 0 88 -59 53 -94 -32 -32 -90 -4 -67 32 15 25 38
21 37 -5 0 -13 3 -23 8 -23 4 0 8 11 8 24 0 29 -33 44 -55 26 -32 -27 -5 -80
40 -80 26 0 55 33 55 64 0 30 -39 66 -72 66 -40 0 -65 -15 -84 -51 -20 -39
-11 -78 25 -113 56 -53 143 -43 192 23 l22 30 31 -34 c44 -46 100 -62 149 -42
39 17 77 68 77 104 0 28 -44 79 -75 87 -32 8 -81 -17 -90 -45 -18 -57 34 -105
81 -74 27 17 31 47 9 65 -32 26 -75 -14 -45 -44 9 -8 10 -4 4 17 -6 26 -4 28
17 25 32 -4 38 -42 9 -58 -17 -9 -26 -8 -46 5 -32 21 -31 58 1 83 21 17 32 19
58 11 37 -10 67 -42 67 -71 0 -48 -45 -95 -95 -99 -48 -4 -67 3 -101 34 -30
28 -37 42 -41 83 -4 43 -1 54 25 90 42 58 89 78 169 71 122 -9 213 -76 247
-179 40 -125 7 -240 -88 -299 l-29 -18 -23 49 c-29 62 -78 90 -159 90 -59 0
-98 15 -129 49 -22 24 -40 18 -31 -10 9 -27 -23 -88 -57 -105 -16 -8 -59 -18
-96 -21 -37 -3 -84 -14 -104 -24 -51 -26 -52 -25 -28 19 30 54 68 73 160 81
56 5 85 12 99 25 30 27 17 33 -15 7 -20 -16 -41 -21 -83 -21 -93 -1 -163 -45
-185 -117 -4 -13 -11 -23 -15 -23 -5 0 -29 18 -54 40 -75 67 -93 156 -56 280
42 140 251 225 365 149z m-393 -277 c6 -77 37 -135 93 -175 l46 -33 1 -102 c1
-56 -1 -102 -5 -102 -10 0 -36 40 -48 77 -10 28 -8 36 16 72 15 23 25 44 22
47 -3 3 -18 -17 -33 -43 -38 -65 -91 -133 -117 -151 -32 -23 -50 7 -46 80 2
31 2 55 0 53 -2 -1 -22 -40 -45 -86 -44 -87 -67 -106 -84 -67 -7 17 -3 44 19
117 32 109 31 136 -2 34 -30 -93 -87 -210 -105 -216 -27 -11 -37 28 -25 91 28
142 89 282 158 363 36 42 115 99 138 99 7 0 13 -24 17 -58z m611 -62 c74 0
122 -22 153 -69 32 -48 29 -54 -18 -31 -22 12 -73 25 -113 29 -100 11 -137 34
-151 94 l-7 28 37 -25 c30 -21 50 -26 99 -26z m-43 -74 c19 -3 57 -7 84 -11
28 -3 70 -16 95 -28 l45 -23 -1 -120 c-2 -239 -78 -400 -222 -471 -165 -81
-331 35 -392 273 -24 94 -36 258 -22 295 13 33 84 69 136 69 69 0 125 20 154
56 l26 33 31 -34 c20 -21 44 -35 66 -39z m296 -187 c7 -19 12 -70 11 -114 0
-60 -2 -72 -8 -48 -4 18 -13 40 -20 48 -12 14 -15 14 -33 -2 -19 -18 -20 -17
-13 32 18 125 39 154 63 84z m-799 -91 c0 -96 21 -207 51 -269 12 -23 21 -48
21 -54 0 -6 -30 -42 -67 -81 -47 -48 -88 -79 -133 -101 -113 -54 -162 -64
-328 -68 -126 -4 -156 -7 -177 -22 -29 -21 -32 -49 -7 -62 10 -5 67 -7 133 -4
125 6 170 -3 274 -55 60 -30 161 -100 194 -136 32 -34 158 -74 271 -87 47 -5
101 -14 120 -19 123 -34 171 -144 120 -278 -26 -68 -25 -93 6 -178 l25 -71
-31 -81 c-31 -82 -89 -160 -109 -148 -5 4 -13 28 -16 54 -13 92 -45 212 -74
276 -36 81 -96 141 -186 188 -91 47 -160 67 -450 128 -446 95 -619 144 -699
200 -99 67 -111 141 -47 274 32 67 56 97 133 172 96 94 181 169 303 265 116
92 288 220 291 217 1 -2 -2 -25 -7 -52 -10 -56 -4 -92 18 -100 21 -8 40 9 65
58 l21 41 9 -27 c6 -17 17 -28 28 -28 21 0 62 48 81 95 l12 30 7 -32 c9 -38
27 -63 46 -63 7 0 32 22 56 50 24 27 44 50 45 50 1 0 1 -37 1 -82z m67 -8 c6
0 19 -34 29 -76 9 -41 20 -82 23 -90 10 -26 -19 -14 -53 22 -19 19 -34 31 -34
26 0 -12 76 -82 89 -82 5 0 20 -17 32 -37 13 -21 41 -57 62 -80 37 -40 37 -42
18 -52 -22 -12 -64 -1 -94 26 -9 9 -20 14 -23 10 -7 -6 77 -57 96 -57 7 0 21
7 31 15 15 14 20 14 55 -4 22 -10 58 -22 81 -26 43 -7 58 -28 41 -59 -14 -25
-127 -22 -180 5 -47 24 -142 115 -134 128 3 5 -2 15 -11 22 -26 22 -65 119
-70 174 -2 28 -6 86 -9 130 l-5 80 23 -37 c12 -21 27 -38 33 -38z m719 -42
c17 -83 16 -113 -6 -177 -23 -66 -23 -66 -26 -28 -4 43 -20 54 -52 37 -12 -6
-23 -10 -25 -8 -2 2 10 40 28 84 44 110 71 141 81 92z m-49 -226 c-1 -58 -29
-102 -105 -160 -51 -39 -63 -35 -26 9 31 36 30 59 0 74 -21 10 -20 12 16 54
40 47 89 83 105 77 6 -1 10 -26 10 -54z m-127 -91 c19 -12 -5 -58 -52 -99 -45
-39 -186 -71 -186 -42 0 6 9 10 19 10 32 0 53 28 46 61 -5 23 -3 29 9 29 9 0
35 9 59 19 73 33 84 35 105 22z"/>
<path d="M3235 4165 c-36 -16 -20 -19 24 -4 22 8 40 8 64 0 29 -10 30 -9 13 4
-24 18 -61 19 -101 0z"/>
<path d="M3545 4164 c-24 -11 -25 -13 -5 -7 14 3 47 6 73 6 30 0 43 3 35 8
-20 13 -70 10 -103 -7z"/>
<path d="M3224 4105 c-16 -12 -17 -14 -2 -15 9 0 18 -9 20 -21 4 -31 31 -45
64 -34 34 12 43 35 14 35 -37 0 -16 25 26 30 29 4 35 7 21 13 -32 12 -122 8
-143 -8z"/>
<path d="M3523 4113 c-18 -7 -16 -23 2 -23 8 0 15 -9 15 -20 0 -32 43 -47 75
-26 28 19 33 38 9 34 -10 -2 -19 3 -21 10 -3 8 7 12 31 12 19 0 38 5 41 10 6
10 -128 13 -152 3z"/>
<path d="M3464 4090 c15 -65 26 -162 20 -173 -5 -9 -4 -9 5 -1 13 12 -4 172
-21 189 -6 6 -7 1 -4 -15z"/>
<path d="M3529 3907 c-9 -12 -37 -28 -62 -35 -39 -12 -49 -11 -75 2 -17 9 -37
23 -46 31 -9 9 -16 12 -16 6 0 -5 20 -23 45 -40 44 -29 47 -30 75 -16 16 8 35
15 43 15 21 0 61 34 56 47 -2 6 -11 1 -20 -10z"/>
<path d="M3539 3808 c-17 -16 -200 -19 -211 -4 -5 7 -11 7 -20 -2 -17 -17 5
-32 49 -32 18 0 43 -5 57 -11 19 -9 34 -8 68 4 23 9 56 18 71 22 16 3 27 11
25 17 -6 18 -24 20 -39 6z"/>
<path d="M3365 3735 c11 -8 25 -19 32 -25 19 -16 50 -12 85 11 18 12 24 18 13
14 -47 -16 -74 -16 -111 -1 -31 13 -35 13 -19 1z"/>
<path d="M6856 5723 c-13 -42 12 -97 68 -150 31 -30 56 -58 56 -63 0 -5 -9
-12 -21 -15 -40 -13 -51 -87 -18 -129 26 -33 59 -33 98 0 36 30 122 65 218 89
37 9 71 22 75 29 4 6 8 28 8 49 0 31 -7 46 -34 73 -19 19 -43 34 -55 34 -22 0
-61 -32 -61 -50 0 -5 -24 -10 -54 -10 -59 0 -67 5 -182 103 -72 61 -89 68 -98
40z"/>
<path d="M7303 5363 c-21 -8 -15 -45 18 -108 27 -50 31 -67 25 -98 -4 -20 -12
-37 -19 -37 -7 0 -36 35 -65 78 -64 95 -108 142 -130 142 -78 0 -133 -153 -98
-274 32 -110 111 -166 204 -145 154 34 215 159 162 332 -29 93 -58 126 -97
110z m-132 -180 c34 -29 59 -78 59 -117 0 -27 -33 -41 -74 -30 -42 10 -70 108
-46 155 14 25 22 24 61 -8z"/>
<path d="M652 4878 c-5 -7 -32 -58 -60 -113 -169 -341 -255 -714 -255 -1115 0
-745 243 -1390 692 -1834 107 -106 109 -110 97 -135 -20 -39 -36 -125 -36
-194 0 -178 77 -417 211 -657 71 -129 210 -334 224 -332 6 1 55 103 110 226
55 124 103 227 106 230 3 3 54 -17 113 -45 507 -239 1122 -248 1691 -25 135
54 197 84 348 170 215 124 474 229 672 271 98 22 310 25 374 6 23 -7 45 -11
47 -9 2 2 -6 32 -16 67 -12 38 -20 91 -20 136 0 100 18 121 142 164 287 100
670 346 868 557 179 192 257 299 358 494 152 293 230 596 248 965 7 154 -2
327 -17 304 -5 -8 -16 -36 -25 -64 -29 -90 -130 -289 -193 -384 -82 -123 -126
-182 -218 -293 -178 -215 -272 -307 -458 -448 -93 -70 -92 -71 -124 48 -73
273 -35 668 108 1120 l29 94 -25 -24 c-38 -36 -223 -318 -298 -456 -215 -394
-317 -745 -319 -1103 l-1 -166 -34 -54 c-44 -68 -150 -179 -223 -236 -140
-108 -321 -158 -483 -135 -89 13 -195 47 -278 89 l-48 24 37 -73 c51 -102 84
-192 84 -233 0 -31 -3 -35 -37 -42 -64 -13 -510 -9 -593 5 -243 43 -413 120
-473 215 -73 113 -233 239 -448 352 -63 33 -98 56 -89 59 64 24 206 47 312 53
106 5 126 8 117 20 -17 19 -256 197 -384 285 -142 97 -242 157 -363 217 -114
57 -158 72 -231 80 l-54 6 -52 125 c-102 245 -218 498 -329 715 -118 231 -256
479 -263 472 -2 -3 37 -76 87 -163 159 -277 355 -686 523 -1094 67 -163 148
-301 254 -432 56 -71 98 -128 94 -128 -5 0 -41 15 -82 34 -100 46 -348 146
-362 146 -7 0 2 -9 18 -19 55 -36 74 -55 123 -129 l48 -73 130 -43 c230 -78
443 -184 591 -296 98 -73 189 -157 180 -166 -3 -4 -12 -2 -19 4 -31 25 -297
139 -465 197 -101 36 -187 65 -192 65 -5 0 -11 -62 -13 -137 -3 -83 -11 -154
-20 -179 l-14 -40 165 -12 c160 -11 445 -44 696 -82 66 -10 124 -14 129 -10 5
5 -1 27 -13 50 -12 23 -18 40 -14 38 83 -39 79 -33 98 -138 9 -54 15 -115 13
-136 -3 -37 -3 -37 57 -60 43 -16 82 -23 136 -23 65 -1 84 3 137 29 54 28 140
105 129 116 -2 3 -22 -2 -43 -10 -53 -21 -162 -46 -201 -46 -56 0 -109 27
-129 68 -11 20 -31 58 -46 85 -16 26 -28 49 -28 51 0 2 29 -7 65 -20 157 -57
248 -69 540 -69 308 1 325 4 325 60 0 38 -32 131 -74 214 -15 29 -26 55 -24
57 2 2 40 -12 84 -31 319 -137 631 -48 870 248 94 116 98 125 90 221 -4 45 -2
135 4 201 36 410 204 837 502 1277 77 114 110 153 94 112 -41 -104 -114 -417
-137 -584 -18 -129 -16 -395 4 -490 18 -87 54 -190 67 -190 13 0 196 140 267
204 55 51 65 56 107 56 91 0 230 69 299 150 43 51 57 51 57 1 0 -44 -30 -230
-60 -366 -49 -228 -56 -250 -110 -330 -62 -92 -222 -261 -345 -363 -188 -158
-486 -329 -705 -405 -121 -42 -140 -65 -140 -171 0 -39 7 -96 15 -126 8 -30
13 -56 11 -57 -2 -2 -37 2 -77 8 -254 40 -657 -81 -1054 -316 -54 -32 -75 -40
-70 -28 55 135 89 292 104 476 16 187 17 185 -39 106 -54 -76 -152 -146 -251
-178 -36 -12 -37 -13 -48 -87 -13 -90 -55 -187 -105 -242 -73 -80 -193 -142
-249 -128 -43 10 -58 89 -31 160 11 28 -35 19 -67 -13 -50 -50 -38 -142 33
-264 15 -26 28 -52 28 -57 0 -4 -24 -11 -52 -15 -29 -3 -61 -9 -70 -11 -35
-10 -140 168 -168 285 -22 94 2 210 58 274 15 17 15 20 -8 37 -14 11 -41 28
-61 40 l-37 20 -30 -47 c-49 -78 -72 -160 -72 -261 0 -107 17 -169 76 -281 24
-46 44 -85 44 -87 0 -2 -18 -4 -40 -4 -38 0 -41 3 -65 51 -73 143 -91 342 -49
549 l7 35 -31 -37 c-54 -61 -146 -69 -257 -22 -95 40 -183 13 -223 -68 -52
-104 -34 -233 40 -278 80 -49 198 6 198 92 0 13 -13 51 -30 85 -27 59 -28 63
-10 63 33 0 133 -42 157 -66 33 -33 30 -80 -7 -136 -77 -116 -254 -162 -382
-99 l-48 23 0 57 c0 32 -6 78 -14 104 -14 46 -51 107 -65 107 -4 0 -8 -29 -8
-65 -1 -76 -39 -166 -85 -199 l-28 -20 -62 33 c-35 19 -64 35 -66 36 -2 2 40
62 93 134 53 72 98 137 100 144 6 16 -23 50 -70 81 -57 39 -127 36 -191 -6
-104 -70 -136 -182 -81 -288 l27 -52 -20 -25 c-20 -26 -61 -148 -77 -233 l-9
-45 -43 110 c-146 374 -178 725 -84 921 20 41 18 40 123 85 94 41 228 127 269
174 107 122 108 266 5 392 -47 57 -99 83 -166 83 -134 -1 -282 -132 -282 -250
0 -54 18 -87 69 -125 43 -34 115 -38 157 -11 31 21 53 83 44 128 -3 15 -2 28
3 28 15 0 69 -80 76 -111 15 -69 -60 -142 -198 -194 -90 -34 -104 -33 -112 8
-24 109 -124 222 -223 252 l-22 6 19 -33 c25 -43 51 -132 51 -177 0 -42 -60
-243 -71 -239 -35 13 -277 263 -266 275 2 2 30 10 61 18 69 18 142 54 110 55
-11 0 -42 14 -69 32 l-48 32 54 11 c30 6 69 19 88 29 l34 18 -44 20 c-43 19
-89 54 -89 68 0 4 37 10 83 13 45 3 105 13 133 21 50 16 174 89 174 103 0 5
-26 6 -57 4 -60 -3 -189 15 -197 28 -3 4 12 15 34 25 49 21 125 89 169 151 19
26 30 46 25 43 -59 -28 -92 -37 -169 -47 -144 -17 -207 -18 -213 -3 -2 8 6 16
18 19 44 12 195 91 214 112 l19 21 -69 0 c-94 0 -221 32 -326 82 -87 41 -88
41 -189 172 -83 106 -95 124 -61 98 84 -67 297 -152 380 -152 66 0 74 11 66
96 -7 78 14 197 43 247 11 19 33 36 59 45 105 38 190 -30 288 -232 92 -190
145 -319 153 -371 5 -41 4 -45 -15 -45 -18 0 -19 3 -9 29 9 24 7 37 -7 70 -20
43 -77 105 -61 66 18 -46 17 -66 -3 -88 -57 -63 -69 -142 -26 -176 80 -63 192
-21 209 78 7 42 8 43 41 37 40 -8 86 13 110 50 13 19 15 38 10 89 -5 53 -4 65
10 73 14 8 11 11 -16 21 -77 26 -136 5 -154 -56 -7 -20 -4 -21 28 -16 30 5 36
3 36 -12 0 -18 -30 -75 -40 -75 -29 1 -216 356 -297 564 -66 170 -145 524
-174 784 -6 56 -8 109 -5 119 4 11 -21 57 -75 137 -148 217 -266 354 -375 432
-69 49 -68 49 -82 32z m118 -75 c85 -75 102 -92 171 -178 66 -82 187 -251 208
-293 11 -20 64 -442 57 -449 -2 -2 -19 4 -39 12 -47 20 -126 19 -155 -1 -30
-21 -61 -84 -68 -136 -2 -24 -6 -128 -8 -233 -3 -214 -15 -270 -68 -331 -29
-33 -35 -36 -75 -31 -61 7 -165 60 -204 104 -17 21 -44 62 -58 93 -23 48 -26
68 -26 160 0 90 3 112 24 153 39 79 77 83 121 12 50 -80 131 -13 110 91 -14
74 -101 357 -130 429 -34 81 -61 115 -91 115 -58 0 -85 -192 -116 -810 -6
-111 7 -180 48 -265 16 -33 21 -49 12 -36 -9 13 -40 53 -69 88 -40 51 -53 76
-58 112 -10 76 -8 408 4 511 32 291 114 579 236 827 l65 133 27 -14 c15 -8 52
-36 82 -63z m5787 -1055 c-13 -333 -61 -571 -169 -836 -28 -68 -52 -121 -54
-120 -1 2 13 55 32 118 60 203 129 555 163 835 27 221 36 222 28 3z m-6087
-622 c52 -68 120 -133 205 -199 43 -33 99 -91 147 -153 43 -54 78 -102 78
-105 0 -3 -13 -4 -30 -1 -74 11 -108 -22 -90 -88 14 -51 28 -59 41 -21 20 56
79 27 79 -39 0 -62 -38 -77 -109 -41 -45 24 -111 94 -111 120 0 10 20 35 45
56 43 34 75 80 75 105 0 6 -11 22 -25 35 -34 34 -108 36 -129 3 -20 -32 -30
-88 -17 -88 6 0 11 4 11 10 0 5 11 17 25 26 31 21 55 5 55 -36 0 -23 -6 -30
-32 -40 -33 -11 -34 -10 -109 68 -121 124 -146 170 -174 305 -13 64 -26 146
-30 184 l-6 68 31 -59 c17 -33 48 -83 70 -110z m1533 -206 c158 -57 410 -211
694 -424 78 -58 144 -110 148 -116 4 -6 -5 -10 -20 -10 -18 0 -51 20 -98 58
-104 85 -155 118 -272 173 -121 58 -261 96 -394 106 l-95 8 -58 110 c-32 61
-58 113 -58 118 0 16 74 5 153 -23z m-1393 -414 c72 -165 129 -303 128 -308
-5 -13 -113 186 -158 292 -43 98 -112 293 -123 345 l-7 30 15 -30 c8 -16 74
-165 145 -329z m1771 1 c89 -44 209 -128 209 -146 0 -4 -40 -18 -89 -30 l-89
-22 -48 34 c-27 19 -77 48 -110 65 -34 17 -64 38 -68 47 -10 28 -7 80 7 94 21
22 88 6 188 -42z m-1586 -93 c20 -8 56 -15 81 -16 41 0 45 -3 41 -22 -3 -11
-18 -88 -33 -171 -15 -82 -31 -154 -35 -159 -13 -15 -78 98 -110 194 -17 52
-34 126 -37 164 l-5 69 31 -22 c17 -12 47 -28 67 -37z m1915 -289 c109 -71
198 -149 242 -212 16 -25 28 -46 26 -48 -4 -3 -485 368 -508 392 -22 24 130
-60 240 -132z m884 -1210 c-72 -33 -225 -86 -237 -82 -10 3 260 106 278 106 6
-1 -13 -11 -41 -24z m-1368 -80 c451 -96 455 -97 451 -102 -9 -8 -262 18 -357
37 -142 29 -410 111 -410 126 0 6 -15 9 316 -61z"/>
<path d="M781 4528 c-42 -95 -35 -207 15 -253 28 -26 100 -43 116 -27 6 6 1
12 -15 16 -39 9 -51 59 -37 150 11 67 11 78 -6 113 -27 54 -50 55 -73 1z"/>
<path d="M608 3609 c-16 -6 -31 -22 -37 -41 -15 -43 -14 -122 3 -162 29 -70
148 -175 166 -146 14 23 21 174 11 227 -14 70 -34 106 -66 121 -30 14 -40 14
-77 1z m96 -29 c24 -24 15 -78 -19 -110 -23 -22 -27 -22 -61 -9 -53 20 -62 39
-44 91 21 60 77 72 124 28z m36 -260 c-3 -28 -9 -51 -15 -51 -13 0 -108 71
-102 77 2 3 16 -1 31 -7 28 -13 76 0 76 21 0 5 3 10 8 10 4 0 5 -23 2 -50z"/>
<path d="M7173 4865 c-5 -15 -3 -34 13 -139 l6 -39 -48 8 c-26 4 -77 16 -112
27 -75 23 -82 19 -82 -49 0 -63 19 -77 130 -91 52 -7 100 -18 107 -24 7 -6 20
-36 29 -67 32 -118 61 -150 86 -95 9 19 9 35 -1 67 -27 91 -30 83 41 95 34 6
108 16 163 22 130 14 163 25 171 56 9 35 -3 72 -25 79 -10 3 -66 -1 -123 -10
-191 -29 -259 -37 -265 -32 -3 3 -9 40 -14 83 -9 79 -28 124 -55 124 -8 0 -17
-7 -21 -15z"/>
<path d="M7071 4379 c-23 -37 -19 -52 15 -68 55 -25 73 -3 48 59 -19 48 -38
51 -63 9z"/>
<path d="M7330 4291 c-52 -4 -112 -15 -132 -24 -36 -15 -38 -18 -38 -62 0 -39
5 -51 40 -89 50 -54 52 -68 6 -54 -50 16 -66 6 -66 -41 0 -52 15 -60 133 -72
51 -5 100 -12 110 -15 25 -8 55 4 68 28 19 35 -6 69 -101 136 -50 34 -90 67
-90 72 0 6 47 10 115 10 131 0 142 6 127 77 -9 44 -12 45 -172 34z"/>
<path d="M7007 4273 c-9 -8 -9 -46 -1 -67 8 -22 68 -21 90 1 15 16 15 19 -15
45 -30 27 -60 36 -74 21z"/>
<path d="M7044 4140 c-32 -13 -37 -26 -19 -60 19 -37 25 -37 65 -4 54 46 21
92 -46 64z"/>
<path d="M7169 3877 c-18 -12 -47 -42 -64 -66 -28 -39 -30 -49 -30 -126 0 -90
11 -116 69 -159 23 -18 42 -21 114 -21 78 0 91 3 130 28 63 41 92 107 92 214
0 89 -13 117 -54 111 -20 -3 -21 -8 -18 -85 3 -64 0 -87 -13 -107 -10 -14 -21
-26 -26 -26 -4 0 -22 45 -40 99 -41 129 -60 161 -97 161 -16 0 -44 -10 -63
-23z m67 -118 c14 -16 19 -36 19 -82 0 -59 -1 -62 -26 -65 -39 -5 -79 32 -79
74 0 45 25 94 49 94 10 0 26 -9 37 -21z"/>
<path d="M5436 3528 c-58 -99 -177 -361 -215 -473 -48 -143 -81 -289 -81 -365
0 -61 5 -72 38 -89 42 -22 89 4 185 101 78 79 88 93 83 116 -22 91 -16 377 15
656 5 49 8 91 5 93 -2 3 -16 -15 -30 -39z"/>
<path d="M7332 3407 c-20 -21 -21 -30 -16 -117 5 -93 5 -96 -26 -148 -55 -94
-151 -116 -226 -50 -43 38 -57 96 -36 153 37 102 32 179 -11 173 -16 -2 -30
-20 -51 -62 -38 -75 -48 -198 -22 -261 57 -137 188 -210 286 -160 66 34 151
178 176 297 14 66 8 157 -11 189 -11 16 -41 10 -63 -14z"/>
<path d="M1177 3279 c-9 -6 -24 -24 -33 -40 -16 -32 -56 -220 -48 -228 5 -5 2
-10 40 64 37 72 67 89 107 59 14 -10 33 -34 42 -53 26 -54 29 -28 5 46 -43
129 -75 173 -113 152z"/>
<path d="M1277 3004 c-60 -31 -130 -45 -184 -35 -58 11 -55 -4 5 -23 99 -32
155 -25 203 23 36 36 49 62 32 61 -5 -1 -29 -12 -56 -26z"/>
<path d="M6150 2962 c-19 -8 -102 -29 -183 -48 l-148 -33 -64 -59 c-36 -32
-85 -70 -110 -83 -40 -21 -45 -28 -45 -59 0 -48 28 -100 69 -127 52 -35 83
-30 125 19 20 23 36 47 36 54 0 14 -54 29 -70 19 -14 -9 -13 5 5 56 19 54 58
96 96 104 39 9 119 -29 188 -88 30 -26 58 -44 63 -39 4 4 15 39 24 77 9 39 24
104 34 145 10 41 17 75 17 76 -1 1 -18 -5 -37 -14z"/>
<path d="M855 2945 c43 -36 157 -98 222 -121 84 -29 166 -31 209 -5 25 15 80
98 71 107 -1 1 -29 -7 -62 -18 -82 -28 -236 -21 -345 15 -41 14 -84 28 -95 32
l-20 7 20 -17z"/>
<path d="M6762 2764 c-74 -90 -84 -271 -18 -333 15 -15 41 -25 68 -28 78 -8
138 53 138 142 0 35 8 43 26 26 5 -5 45 -19 89 -31 99 -27 130 -43 151 -76 16
-24 16 -27 -3 -52 -11 -14 -44 -36 -74 -48 -38 -15 -57 -29 -63 -47 -14 -38
-2 -57 38 -57 80 0 176 121 176 222 0 74 -28 97 -176 143 -148 47 -184 65
-249 126 -29 27 -57 49 -63 49 -6 0 -24 -16 -40 -36z m65 -119 c53 -37 81
-125 45 -144 -51 -27 -112 24 -112 93 0 62 25 81 67 51z"/>
<path d="M5868 2580 c2 -49 2 -100 -2 -114 -27 -106 -162 -60 -359 124 l-77
72 -46 -42 c-53 -49 -112 -77 -209 -100 l-70 -17 -3 -67 c-3 -79 16 -155 61
-240 31 -58 124 -166 142 -166 6 0 10 53 10 128 1 108 4 134 22 174 35 76 62
76 226 1 152 -70 212 -70 315 -3 69 44 105 92 124 164 l13 48 -40 35 c-22 18
-56 47 -76 63 l-35 29 4 -89z"/>
<path d="M6605 2460 c-18 -20 -18 -21 5 -46 37 -38 64 -29 68 24 3 40 2 42
-26 42 -16 0 -37 -9 -47 -20z"/>
<path d="M7007 2469 c-24 -14 -37 -51 -25 -66 6 -7 23 -13 39 -13 22 0 30 6
35 24 13 53 -10 78 -49 55z"/>
<path d="M6502 2400 c-19 -31 -14 -56 13 -68 64 -29 90 -4 55 53 -24 39 -49
45 -68 15z"/>
<path d="M6648 2320 c-9 -6 -22 -26 -28 -45 -9 -29 -8 -44 5 -86 9 -28 14 -53
11 -56 -3 -3 -18 6 -32 20 -37 37 -59 34 -82 -10 -18 -33 -6 -50 72 -102 39
-26 89 -60 110 -74 45 -31 59 -33 80 -11 26 26 19 61 -35 160 -28 52 -49 97
-46 100 3 3 50 -18 106 -45 55 -28 107 -51 116 -51 16 0 48 67 41 85 -6 17
-171 94 -236 111 -63 16 -60 16 -82 4z"/>
<path d="M5031 2255 c-73 -129 -188 -258 -278 -310 -29 -17 -33 -25 -33 -61 0
-23 -3 -61 -6 -85 l-6 -45 36 -2 c66 -5 130 -34 145 -67 l13 -30 87 84 c109
105 207 179 249 187 41 8 40 15 -3 38 -20 11 -53 39 -75 62 -60 65 -82 118
-89 209 l-6 80 -34 -60z"/>
<path d="M6451 2268 c-5 -14 -5 -31 1 -41 8 -15 17 -18 46 -12 21 3 44 13 52
21 13 14 12 17 -9 35 -33 27 -79 25 -90 -3z"/>
<path d="M5399 2241 c-35 -28 -32 -122 5 -213 16 -38 31 -68 35 -68 4 0 15 13
24 30 25 41 96 80 192 106 52 13 81 26 83 36 3 17 -79 76 -150 108 -59 27
-157 27 -189 1z"/>
<path d="M6300 2098 c-25 -42 -25 -60 0 -83 46 -41 115 25 88 83 -20 42 -62
42 -88 0z"/>
<path d="M6441 2004 c-51 -43 -44 -76 32 -147 67 -62 143 -117 163 -117 17 0
64 58 64 79 0 10 -18 27 -42 41 -51 27 -134 104 -154 143 -18 33 -25 34 -63 1z"/>
<path d="M6196 1936 c-20 -18 -36 -39 -36 -47 0 -7 24 -56 54 -108 57 -102 93
-188 83 -198 -4 -3 -35 2 -69 11 -140 38 -147 39 -174 21 -33 -21 -51 -61 -38
-83 20 -31 312 -91 375 -77 19 4 35 18 45 37 15 28 14 35 -6 92 -12 33 -53
121 -91 195 -38 73 -69 141 -69 150 0 17 -18 41 -31 41 -4 0 -24 -15 -43 -34z"/>
<path d="M1940 1904 c-59 -41 -128 -115 -150 -158 -48 -101 2 -246 103 -297
52 -27 147 -35 206 -17 l43 13 -50 33 c-28 18 -73 57 -101 88 -93 101 -104
213 -31 319 35 51 31 55 -20 19z"/>
<path d="M4114 1854 c12 -99 47 -235 66 -254 21 -21 129 -35 186 -24 112 20
184 97 200 213 4 28 3 51 -2 51 -5 -1 -29 -20 -53 -44 -72 -71 -146 -111 -207
-111 -37 0 -58 5 -73 19 -33 30 -25 42 37 56 31 7 62 15 69 19 9 5 -159 104
-221 130 -5 2 -6 -21 -2 -55z"/>
<path d="M6032 1790 c-65 -27 -123 -98 -108 -135 9 -23 50 -18 82 11 16 14 44
32 62 40 18 8 38 26 44 40 11 22 9 28 -7 40 -21 16 -40 17 -73 4z"/>
<path d="M4679 1692 c-40 -26 -92 -93 -138 -176 -22 -41 -41 -78 -41 -82 0 -4
24 16 53 43 53 50 104 83 129 83 28 0 147 -72 188 -113 l43 -42 -6 42 c-13 77
-59 184 -97 224 -42 44 -86 51 -131 21z"/>
<path d="M2110 1621 c0 -19 50 -92 84 -123 38 -36 67 -48 95 -41 17 4 21 13
21 45 0 33 -6 47 -34 73 -21 19 -50 35 -73 39 -21 4 -50 9 -65 12 -17 3 -28 1
-28 -5z"/>
<path d="M2523 1609 c-41 -12 -42 -23 -4 -39 16 -6 39 -22 52 -36 21 -22 21
-25 6 -42 -23 -26 -21 -58 5 -76 24 -17 75 -21 95 -8 20 13 30 54 22 89 -20
89 -95 137 -176 112z"/>
<path d="M2824 1606 c-7 -19 18 -56 55 -81 16 -10 40 -42 53 -69 48 -104 89
-126 107 -58 15 53 13 81 -9 130 -16 35 -29 47 -72 67 -59 28 -126 33 -134 11z"/>
<path d="M3926 1593 c-21 -71 -39 -293 -28 -353 l8 -45 49 3 c126 8 263 72
365 171 37 36 72 75 78 86 10 19 7 20 -71 20 -95 0 -176 24 -302 89 -44 22
-83 42 -87 44 -3 2 -9 -5 -12 -15z"/>
<path d="M5862 1584 c-35 -24 -46 -62 -27 -90 19 -29 44 -30 79 -3 18 14 26
30 26 53 0 54 -34 71 -78 40z"/>
<path d="M4655 1455 c-14 -13 -25 -29 -25 -35 0 -11 90 -12 129 -1 l24 6 -32
28 c-40 33 -65 34 -96 2z"/>
<path d="M5956 1445 c-23 -22 -27 -32 -22 -57 10 -52 155 -218 189 -218 23 0
77 47 77 66 0 7 -18 28 -41 46 -46 37 -109 120 -119 157 -9 37 -48 39 -84 6z"/>
<path d="M3412 1368 c-59 -86 -98 -97 -169 -49 -58 39 -102 46 -170 26 -141
-41 -225 -246 -160 -388 23 -51 111 -156 122 -146 3 3 -5 32 -17 65 -16 43
-22 82 -23 146 0 80 2 89 30 130 17 23 50 54 74 67 40 22 47 23 96 12 61 -14
88 -39 87 -80 -1 -30 -34 -105 -52 -116 -22 -13 -8 -24 23 -18 64 12 127 52
157 99 44 70 61 179 41 269 l-6 30 -33 -47z"/>
<path d="M5579 1347 c-120 -45 -174 -113 -111 -140 16 -7 68 -55 118 -107 143
-153 139 -147 139 -193 l0 -42 41 1 c101 2 200 148 198 295 0 76 -19 116 -77
163 -38 30 -42 31 -155 34 -79 1 -129 -2 -153 -11z m243 -94 c42 -24 61 -78
56 -156 -3 -45 -10 -63 -30 -83 l-25 -26 -112 122 c-61 67 -111 127 -111 135
0 36 164 42 222 8z"/>
<path d="M5195 946 c-45 -20 -134 -94 -147 -122 -9 -19 -8 -28 7 -44 29 -32
54 -24 122 41 67 65 105 76 111 32 2 -16 -5 -26 -30 -39 -63 -32 -116 -84
-144 -140 -24 -49 -26 -59 -16 -93 26 -85 101 -102 228 -51 56 22 88 30 110
25 23 -4 37 -1 49 11 20 20 13 57 -25 134 -15 30 -33 73 -40 95 -21 67 -63
136 -92 151 -34 17 -93 17 -133 0z m149 -208 c8 -13 18 -42 22 -65 l7 -43 -45
-20 c-24 -10 -62 -22 -85 -26 -35 -5 -43 -3 -52 14 -16 31 0 62 59 115 59 53
73 57 94 25z"/>
<path d="M5280 687 c-14 -7 -25 -21 -25 -32 0 -16 7 -20 30 -20 24 0 31 5 33
24 5 32 -9 42 -38 28z"/>
<path d="M4823 860 c-57 -34 -39 -100 26 -100 46 0 81 76 49 108 -17 17 -38
15 -75 -8z"/>
<path d="M1903 723 c-20 -7 -15 -51 6 -63 11 -5 37 -10 59 -10 22 0 60 -3 85
-6 57 -8 58 4 -24 -217 -76 -203 -85 -243 -63 -268 20 -22 106 -27 121 -6 5 6
28 85 51 175 43 168 83 269 109 279 9 4 46 -1 83 -10 37 -9 76 -13 88 -10 24
6 39 40 24 55 -13 13 -193 55 -312 73 -93 15 -203 18 -227 8z"/>
<path d="M4872 697 c-12 -13 -22 -33 -22 -45 0 -28 76 -211 97 -234 22 -25 62
-22 96 5 l28 22 -27 40 c-34 49 -74 159 -74 203 0 30 -2 32 -38 32 -27 0 -45
-7 -60 -23z"/>
<path d="M4669 677 c-8 -7 -30 -33 -48 -59 -17 -27 -34 -48 -37 -48 -3 0 -15
11 -27 25 -12 14 -36 28 -54 31 -25 5 -37 1 -57 -19 -34 -34 -33 -49 8 -94 39
-44 95 -143 126 -223 12 -30 28 -61 37 -67 46 -35 123 7 123 67 0 29 -24 63
-50 72 -6 2 -16 27 -22 56 -8 49 -7 57 18 100 69 119 85 152 79 162 -9 14 -77
12 -96 -3z"/>
<path d="M4212 579 c-50 -25 -143 -124 -172 -184 -24 -50 -26 -133 -5 -175 31
-59 111 -100 196 -100 155 0 277 72 267 158 -5 42 -29 37 -92 -18 -57 -50 -57
-50 -128 -50 -66 0 -72 2 -104 34 -63 63 -39 148 65 229 70 54 91 88 71 112
-17 21 -47 19 -98 -6z"/>
<path d="M2936 488 c-20 -29 -20 -34 4 -58 29 -29 94 -27 114 2 34 48 10 78
-63 78 -30 0 -44 -6 -55 -22z"/>
<path d="M3353 493 c-23 -9 -9 -76 20 -95 25 -16 57 28 57 77 0 22 -4 25 -32
24 -18 0 -39 -3 -45 -6z"/>
<path d="M2466 467 c-15 -11 -17 -21 -11 -53 4 -21 9 -108 10 -192 3 -128 6
-157 21 -173 25 -27 75 -34 113 -15 39 21 48 55 25 95 -16 27 -16 33 -2 78 14
46 18 50 104 95 48 27 95 54 102 62 22 22 8 43 -36 57 -35 10 -45 8 -110 -20
-38 -17 -73 -31 -76 -31 -3 0 -6 12 -6 26 0 59 -88 105 -134 71z"/>
<path d="M3219 461 l-23 -19 37 -37 c40 -40 70 -43 75 -8 5 31 -25 83 -47 83
-10 0 -29 -8 -42 -19z"/>
<path d="M3476 434 c-11 -29 -6 -65 10 -71 19 -7 84 22 84 38 0 17 -43 48 -66
49 -12 0 -25 -7 -28 -16z"/>
<path d="M3715 431 c-92 -33 -111 -54 -82 -92 21 -27 40 -27 109 3 82 35 134
37 143 7 8 -25 -8 -39 -47 -39 -44 0 -146 -36 -183 -65 -89 -67 -80 -167 18
-204 15 -6 72 -11 127 -12 67 -1 105 -5 117 -15 29 -22 62 -17 73 10 5 14 6
93 2 185 -8 173 -17 199 -73 228 -35 18 -146 15 -204 -6z m181 -217 c4 -14 3
-44 -2 -67 l-9 -42 -87 0 c-100 1 -117 9 -102 52 7 22 24 34 74 55 86 35 118
36 126 2z"/>
<path d="M3785 176 c-16 -12 -17 -16 -6 -30 17 -20 45 -21 61 -1 29 35 -16 60
-55 31z"/>
<path d="M2926 331 c-19 -21 -35 -117 -36 -212 0 -71 17 -89 84 -89 l47 0 -2
72 c-3 83 11 169 32 194 34 42 -88 76 -125 35z"/>
<path d="M3141 313 c-6 -20 -8 -40 -5 -44 3 -5 5 -47 5 -95 0 -101 9 -131 44
-140 40 -10 70 18 120 116 26 49 51 90 55 90 5 0 14 -26 20 -57 6 -32 16 -85
23 -118 l12 -60 41 -3 c62 -5 77 15 59 76 -7 26 -16 68 -20 94 -3 26 -20 74
-36 107 l-31 61 -46 0 c-41 0 -50 -4 -88 -45 -23 -25 -45 -45 -49 -45 -4 0 -4
16 -1 36 9 46 -6 64 -55 64 -35 0 -39 -3 -48 -37z"/>
</g>
</svg>
