<?xml version="1.0" standalone="no"?>
<!DOCTYPE svg PUBLIC "-//W3C//DTD SVG 20010904//EN"
 "http://www.w3.org/TR/2001/REC-SVG-20010904/DTD/svg10.dtd">
<svg version="1.0" xmlns="http://www.w3.org/2000/svg"
 width="1180.000000pt" height="236.000000pt" viewBox="0 0 1180.000000 236.000000"
 preserveAspectRatio="xMidYMid meet">

<g transform="translate(0.000000,236.000000) scale(0.100000,-0.100000)"
fill="#FEFEFE" stroke="none">
<path d="M954 1866 c-3 -7 2 -30 10 -50 12 -29 12 -37 2 -43 -19 -11 -38 -52
-30 -64 3 -6 -2 -16 -12 -23 -12 -9 -14 -15 -5 -20 6 -4 14 0 17 8 3 9 9 14
14 11 4 -2 5 6 3 18 -3 14 3 30 16 41 21 19 21 19 21 -12 0 -33 16 -42 36 -22
8 8 15 6 24 -5 19 -23 49 -18 62 10 12 27 22 25 39 -7 9 -17 8 -19 -9 -14 -11
4 -23 3 -25 -1 -6 -9 91 -78 99 -70 3 3 -4 24 -16 47 l-21 41 23 -12 c23 -12
23 -12 4 9 -10 12 -22 20 -25 18 -4 -3 -36 25 -71 61 -79 80 -143 113 -156 79z"/>
<path d="M1149 1870 c-6 -19 -3 -60 3 -60 13 0 9 -28 -4 -34 -9 -3 -8 -9 6
-20 10 -8 22 -13 26 -11 10 6 -5 104 -18 117 -7 7 -13 10 -13 8z"/>
<path d="M870 1840 c-6 -11 -17 -20 -26 -20 -8 0 -17 -7 -20 -15 -4 -10 -13
-13 -25 -10 -36 12 -37 -5 -3 -39 39 -39 42 -54 14 -89 -11 -14 -20 -28 -20
-31 0 -3 9 -6 20 -6 11 0 20 7 20 15 0 8 4 15 9 15 5 0 11 -7 15 -15 3 -8 13
-15 22 -15 14 0 14 3 4 18 -7 9 6 -3 29 -28 l43 -45 -22 37 c-39 69 -52 99
-57 137 -4 32 0 43 27 74 l32 37 -26 0 c-15 0 -30 -8 -36 -20z"/>
<path d="M925 1810 c3 -5 10 -10 16 -10 5 0 9 5 9 10 0 6 -7 10 -16 10 -8 0
-12 -4 -9 -10z"/>
<path d="M628 1794 c-16 -8 -28 -18 -28 -22 0 -4 18 -15 40 -24 53 -22 68 -55
46 -99 -9 -17 -16 -34 -16 -36 0 -1 19 -3 42 -3 41 0 42 0 20 16 -12 8 -22 21
-22 29 0 11 6 11 29 2 62 -23 86 55 34 105 -55 50 -95 59 -145 32z m82 -24
c47 -24 78 -66 62 -82 -15 -15 -34 0 -27 23 5 14 3 17 -9 13 -9 -3 -16 -14
-16 -23 -1 -9 -7 -2 -14 14 -7 17 -20 36 -29 44 -16 13 -23 31 -12 31 3 0 24
-9 45 -20z"/>
<path d="M900 1780 c0 -5 7 -10 16 -10 8 0 12 5 9 10 -3 6 -10 10 -16 10 -5 0
-9 -4 -9 -10z"/>
<path d="M541 1715 c-24 -27 -31 -45 -31 -75 0 -22 -4 -40 -10 -40 -5 0 -25
-25 -45 -55 -29 -46 -39 -55 -65 -55 -34 0 -57 -29 -38 -48 15 -15 55 -16 63
-2 10 16 21 11 33 -15 13 -27 49 -34 58 -11 3 8 -2 28 -11 46 -21 40 -17 104
8 108 9 2 17 -1 17 -7 0 -6 -7 -11 -15 -11 -17 0 -20 -16 -4 -25 5 -4 19 1 29
10 15 13 17 22 10 36 -22 41 -3 131 31 150 11 5 28 8 38 4 22 -7 43 -49 35
-70 -10 -25 -32 -17 -36 12 -2 14 -8 28 -15 30 -18 6 -53 -34 -53 -60 0 -32
27 -67 46 -60 13 5 12 9 -6 25 -22 20 -24 59 -4 65 7 2 10 -5 7 -21 -4 -18 1
-27 17 -36 19 -10 27 -9 49 8 34 26 32 77 -5 110 -36 32 -67 28 -103 -13z
m-130 -248 c-1 -12 -15 -9 -19 4 -3 6 1 10 8 8 6 -3 11 -8 11 -12z m64 -17 c5
1 11 -3 13 -9 2 -6 -3 -11 -11 -11 -15 0 -28 21 -26 43 0 7 4 4 8 -6 4 -10 11
-18 16 -17z"/>
<path d="M895 1730 c-3 -5 1 -10 9 -10 9 0 16 5 16 10 0 6 -4 10 -9 10 -6 0
-13 -4 -16 -10z"/>
<path d="M970 1660 c8 -5 47 -9 87 -8 94 3 71 18 -27 18 -52 0 -70 -3 -60 -10z"/>
<path d="M1240 1640 c0 -12 35 -31 44 -23 8 9 -14 33 -30 33 -8 0 -14 -4 -14
-10z"/>
<path d="M945 1630 c-8 -13 5 -13 25 0 13 8 13 10 -2 10 -9 0 -20 -4 -23 -10z"/>
<path d="M1006 1624 c-21 -21 -32 -67 -18 -72 7 -2 12 -17 12 -33 0 -26 -3
-28 -30 -25 -37 4 -48 -9 -20 -24 22 -12 84 -6 110 10 12 7 9 13 -12 29 -29
23 -43 74 -27 103 8 15 17 18 37 13 33 -8 52 -26 35 -32 -21 -7 -16 -45 5 -41
11 2 18 14 20 34 2 24 -2 33 -23 42 -36 16 -71 15 -89 -4z"/>
<path d="M1142 1602 c-3 -38 -21 -62 -47 -62 -26 0 -40 26 -29 56 7 18 6 18
-12 2 -14 -14 -16 -23 -8 -45 8 -23 16 -29 46 -31 43 -4 62 20 55 71 -2 21 -4
24 -5 9z"/>
<path d="M1210 1602 c0 -5 7 -16 16 -23 14 -12 16 -11 13 5 -4 20 -29 35 -29
18z"/>
<path d="M1270 1576 c0 -16 24 -38 33 -30 8 9 -11 44 -23 44 -6 0 -10 -6 -10
-14z"/>
<path d="M1160 1576 c0 -2 7 -9 15 -16 12 -10 15 -10 15 4 0 9 -7 16 -15 16
-8 0 -15 -2 -15 -4z"/>
<path d="M1331 1526 c-1 -13 -6 -16 -18 -11 -10 4 -36 9 -58 12 l-40 6 22 -25
c13 -13 25 -38 29 -55 4 -19 14 -33 25 -36 26 -7 34 -34 22 -68 -9 -23 -8 -29
2 -29 20 0 45 64 45 117 -1 47 -27 130 -29 89z"/>
<path d="M1466 1521 c-4 -5 -2 -12 4 -16 5 -3 10 -15 10 -26 0 -18 4 -20 33
-14 39 9 41 10 34 29 -4 9 -13 13 -22 10 -9 -4 -24 1 -34 10 -12 11 -21 13
-25 7z"/>
<path d="M1145 1496 c-18 -13 -17 -15 20 -30 85 -36 105 -29 69 22 -18 25 -60
29 -89 8z"/>
<path d="M2298 1480 c-21 -13 -41 -74 -33 -100 9 -28 40 -25 64 6 23 30 27 74
9 92 -14 14 -18 14 -40 2z"/>
<path d="M3648 1480 c-21 -13 -41 -74 -33 -100 9 -28 40 -25 64 6 23 30 27 74
9 92 -14 14 -18 14 -40 2z"/>
<path d="M4385 1483 c-48 -10 -77 -28 -91 -56 -22 -41 -7 -51 45 -32 34 11 41
12 32 2 -6 -8 -31 -83 -56 -167 -52 -175 -53 -173 32 -186 119 -18 242 26 300
107 44 62 69 160 54 216 -14 52 -46 92 -87 109 -32 13 -181 18 -229 7z m147
-84 c50 -27 65 -155 25 -223 -28 -50 -61 -74 -115 -82 l-42 -7 14 34 c7 19 28
91 47 162 18 70 37 127 42 127 4 0 17 -5 29 -11z"/>
<path d="M4798 1480 c-21 -13 -41 -74 -33 -100 9 -28 40 -25 64 6 23 30 27 74
9 92 -14 14 -18 14 -40 2z"/>
<path d="M5238 1480 c-21 -13 -41 -74 -33 -100 9 -28 40 -25 64 6 23 30 27 74
9 92 -14 14 -18 14 -40 2z"/>
<path d="M1782 1455 c-59 -50 -34 -95 45 -80 32 6 35 4 30 -12 -4 -10 -25 -70
-47 -133 -40 -115 -45 -144 -34 -174 13 -34 101 -8 120 36 6 13 26 85 45 160
27 111 37 138 51 138 10 0 25 12 34 26 28 41 5 54 -112 61 -97 6 -100 5 -132
-22z"/>
<path d="M6413 1454 c-143 -71 -233 -253 -173 -351 28 -47 72 -66 139 -61 102
8 211 81 211 142 0 23 -11 20 -84 -19 -77 -43 -118 -56 -137 -44 -24 15 -14
112 19 182 34 73 81 132 94 119 12 -12 -17 -137 -42 -180 -26 -43 -25 -52 5
-52 31 0 100 61 126 112 11 21 22 58 25 82 6 39 3 48 -19 70 -35 35 -95 35
-164 0z"/>
<path d="M7367 1460 c-14 -11 -33 -40 -43 -65 -11 -25 -26 -47 -35 -50 -9 -3
-22 -18 -28 -33 -11 -22 -10 -28 2 -36 12 -8 12 -16 1 -60 -30 -111 -9 -166
62 -166 33 0 94 31 94 48 0 4 -10 12 -22 17 -17 8 -24 20 -26 50 -5 56 6 105
23 105 20 0 55 36 55 56 0 9 -9 18 -20 21 -24 6 -24 11 -4 63 9 22 14 47 10
55 -8 21 -39 19 -69 -5z"/>
<path d="M1160 1405 c30 -30 56 -55 58 -55 3 0 -8 16 -22 35 -17 22 -22 35
-14 35 22 1 -33 40 -55 40 -18 0 -12 -10 33 -55z"/>
<path d="M1547 1438 c4 -21 3 -22 -10 -5 -18 21 -33 22 -41 1 -8 -22 11 -54
33 -54 27 0 44 26 37 55 -8 31 -26 34 -19 3z m-17 -29 c0 -6 -4 -7 -10 -4 -5
3 -10 11 -10 16 0 6 5 7 10 4 6 -3 10 -11 10 -16z"/>
<path d="M1235 1390 c3 -5 8 -10 11 -10 2 0 4 5 4 10 0 6 -5 10 -11 10 -5 0
-7 -4 -4 -10z"/>
<path d="M1520 1357 c0 -10 -5 -14 -14 -11 -8 3 -17 1 -21 -5 -3 -6 5 -15 19
-21 14 -5 26 -14 26 -20 0 -5 5 -10 10 -10 6 0 9 6 8 13 -2 7 10 13 30 15 19
2 32 9 32 17 0 11 -8 13 -32 8 -23 -5 -34 -2 -45 12 -11 17 -13 17 -13 2z"/>
<path d="M4886 1338 c-32 -46 -10 -266 29 -295 14 -10 23 -9 45 2 31 16 98 96
137 163 25 42 34 106 19 131 -17 28 -39 5 -85 -91 l-49 -103 -1 92 c-1 83 -3
93 -23 107 -31 22 -54 20 -72 -6z"/>
<path d="M2056 1331 c-35 -39 -73 -221 -56 -267 11 -29 48 -32 79 -6 18 14 23
31 28 97 6 89 22 137 23 68 0 -52 14 -63 34 -26 39 77 24 174 -23 146 -13 -8
-22 -9 -26 -3 -10 16 -41 11 -59 -9z"/>
<path d="M2266 1328 c-48 -73 -73 -201 -51 -255 12 -29 19 -34 42 -31 25 3 31
11 51 73 32 96 40 195 18 218 -24 23 -43 21 -60 -5z"/>
<path d="M2457 1339 c-53 -31 -112 -260 -75 -297 24 -24 53 -13 90 36 20 26
49 58 63 72 27 25 27 25 21 2 -10 -29 10 -88 35 -106 21 -14 64 -10 77 8 4 6
5 65 2 131 l-5 120 -32 3 c-26 3 -40 -5 -77 -41 l-46 -44 6 49 c9 67 -14 93
-59 67z"/>
<path d="M2864 1334 c-81 -40 -147 -122 -159 -200 -6 -34 -3 -45 20 -72 43
-51 86 -43 163 31 l42 41 0 -37 c0 -46 33 -73 73 -58 14 5 29 16 33 23 11 17
5 182 -6 186 -5 2 -7 16 -4 31 12 59 -87 92 -162 55z m50 -50 c3 -8 -1 -31 -9
-50 -13 -33 -13 -34 8 -34 20 -1 18 -4 -15 -35 -44 -41 -65 -44 -73 -12 -7 28
8 71 41 114 28 37 39 41 48 17z"/>
<path d="M3202 1327 c-85 -63 -137 -192 -102 -256 13 -26 64 -45 97 -36 41 10
88 49 103 85 17 42 8 46 -36 16 -30 -20 -41 -23 -52 -14 -18 15 -12 88 13 143
19 44 33 32 16 -15 -11 -32 -2 -38 34 -24 17 7 45 54 45 78 0 47 -68 60 -118
23z"/>
<path d="M3396 1331 c-35 -39 -73 -221 -56 -267 11 -29 48 -32 79 -6 18 14 23
31 28 97 6 89 22 137 23 68 0 -52 14 -63 34 -26 39 77 24 174 -23 146 -13 -8
-22 -9 -26 -3 -10 16 -41 11 -59 -9z"/>
<path d="M3616 1328 c-48 -73 -73 -201 -51 -255 12 -29 19 -34 42 -31 25 3 31
11 51 73 32 96 40 195 18 218 -24 23 -43 21 -60 -5z"/>
<path d="M3864 1334 c-81 -40 -147 -122 -159 -200 -6 -34 -3 -45 20 -72 43
-51 86 -43 163 31 l42 41 0 -37 c0 -46 33 -73 73 -58 14 5 29 16 33 23 11 17
5 182 -6 186 -5 2 -7 16 -4 31 12 59 -87 92 -162 55z m50 -50 c3 -8 -1 -31 -9
-50 -13 -33 -13 -34 8 -34 20 -1 18 -4 -15 -35 -44 -41 -65 -44 -73 -12 -7 28
8 71 41 114 28 37 39 41 48 17z"/>
<path d="M4766 1328 c-48 -73 -73 -201 -51 -255 12 -29 19 -34 42 -31 25 3 31
11 51 73 32 96 40 195 18 218 -24 23 -43 21 -60 -5z"/>
<path d="M5206 1328 c-48 -73 -73 -201 -51 -255 12 -29 19 -34 42 -31 25 3 31
11 51 73 32 96 40 195 18 218 -24 23 -43 21 -60 -5z"/>
<path d="M5397 1339 c-53 -31 -112 -260 -75 -297 24 -24 53 -13 90 36 20 26
49 58 63 72 27 25 27 25 21 2 -10 -29 10 -88 35 -106 21 -14 64 -10 77 8 4 6
5 65 2 131 l-5 120 -32 3 c-26 3 -40 -5 -77 -41 l-46 -44 6 49 c9 67 -14 93
-59 67z"/>
<path d="M5853 1341 c-151 -37 -274 -247 -173 -298 29 -14 69 0 134 47 22 17
42 26 44 20 5 -15 -36 -148 -48 -155 -15 -9 -12 31 5 72 8 20 13 38 10 41 -8
9 -76 -31 -96 -57 -37 -47 -16 -111 37 -111 69 0 151 70 184 156 24 65 37 159
22 167 -5 4 -7 26 -5 50 4 29 1 46 -8 54 -20 16 -69 22 -106 14z m17 -61 c0
-12 -7 -34 -15 -50 -10 -20 -12 -31 -4 -36 12 -7 -48 -63 -68 -64 -27 0 -2 78
43 137 29 38 44 42 44 13z"/>
<path d="M6718 1317 c-54 -41 -99 -122 -101 -183 -2 -39 2 -49 27 -71 25 -21
37 -24 74 -20 47 5 152 69 152 93 0 25 -19 24 -69 -3 -40 -22 -52 -26 -62 -15
-11 10 -8 12 10 12 50 0 131 93 131 151 0 75 -85 94 -162 36z m72 -38 c0 -37
-22 -98 -42 -115 -17 -16 -18 -16 -18 10 0 32 38 126 51 126 5 0 9 -10 9 -21z"/>
<path d="M6987 1339 c-53 -31 -112 -260 -75 -297 24 -24 53 -13 90 36 20 26
49 58 63 72 27 25 27 25 21 2 -10 -29 10 -88 35 -106 21 -14 64 -10 77 8 4 6
5 65 2 131 l-5 120 -32 3 c-26 3 -40 -5 -77 -41 l-46 -44 6 49 c9 67 -14 93
-59 67z"/>
<path d="M7568 1317 c-54 -41 -99 -122 -101 -183 -2 -39 2 -49 27 -71 25 -21
37 -24 74 -20 47 5 152 69 152 93 0 25 -19 24 -69 -3 -40 -22 -52 -26 -62 -15
-11 10 -8 12 10 12 50 0 131 93 131 151 0 75 -85 94 -162 36z m72 -38 c0 -37
-22 -98 -42 -115 -17 -16 -18 -16 -18 10 0 32 38 126 51 126 5 0 9 -10 9 -21z"/>
<path d="M7806 1331 c-35 -39 -73 -221 -56 -267 11 -29 48 -32 79 -6 18 14 23
31 28 97 6 89 22 137 23 68 0 -52 14 -63 34 -26 39 77 24 174 -23 146 -13 -8
-22 -9 -26 -3 -10 16 -41 11 -59 -9z"/>
<path d="M390 1291 c0 -17 5 -31 10 -31 6 0 10 11 10 24 0 14 -4 28 -10 31 -6
4 -10 -7 -10 -24z"/>
<path d="M1497 1276 c-4 -10 -5 -21 -2 -24 9 -9 17 6 13 25 -3 17 -4 17 -11
-1z"/>
<path d="M336 1253 c-3 -10 -6 -55 -8 -101 -2 -76 0 -84 22 -105 13 -12 18
-14 11 -4 -13 16 -11 16 22 2 38 -16 47 -12 47 20 0 26 18 45 37 38 22 -9 53
-77 42 -94 -24 -38 4 -53 41 -22 22 19 28 58 8 50 -7 -2 -12 -10 -11 -16 2 -6
1 -11 -2 -11 -10 0 -65 124 -65 145 0 30 -15 47 -36 43 -15 -2 -20 -15 -26
-57 -3 -29 -11 -58 -16 -63 -12 -12 -47 5 -56 28 -5 14 -4 15 8 5 16 -13 36
-7 36 11 0 5 -6 8 -13 5 -21 -8 -38 7 -31 27 5 12 10 14 19 6 23 -19 27 8 10
60 -17 52 -30 62 -39 33z"/>
<path d="M1523 1238 c2 -18 -3 -41 -11 -50 -19 -23 -11 -52 16 -56 28 -4 52
14 52 39 0 24 -20 25 -21 2 0 -15 -2 -15 -9 2 -13 29 -12 35 5 35 20 0 19 10
-2 26 -17 12 -16 13 5 14 12 0 22 5 22 10 0 6 -13 10 -30 10 -28 0 -30 -2 -27
-32z m17 -79 c0 -5 -4 -9 -10 -9 -5 0 -10 7 -10 16 0 8 5 12 10 9 6 -3 10 -10
10 -16z"/>
<path d="M825 1230 c4 -6 11 -8 16 -5 14 9 11 15 -7 15 -8 0 -12 -5 -9 -10z"/>
<path d="M880 1229 c0 -5 5 -7 10 -4 6 3 10 8 10 11 0 2 -4 4 -10 4 -5 0 -10
-5 -10 -11z"/>
<path d="M1385 1163 c-11 -20 -35 -55 -53 -76 -36 -44 -36 -58 2 -33 31 20 37
11 26 -40 -13 -54 -12 -63 5 -33 14 27 49 193 43 210 -2 5 -12 -7 -23 -28z"/>
<path d="M1192 1093 c-30 -67 -39 -123 -19 -123 27 0 40 31 44 101 2 38 2 69
0 69 -2 0 -13 -21 -25 -47z"/>
<path d="M1550 1098 c0 -28 -23 -53 -40 -43 -5 3 -10 17 -10 31 0 14 -4 22
-10 19 -17 -10 -11 -51 10 -70 19 -17 21 -17 39 -1 24 22 36 65 22 79 -8 8
-11 3 -11 -15z"/>
<path d="M454 1075 c-4 -9 -4 -19 0 -22 3 -4 6 -1 6 6 0 7 5 9 10 6 6 -3 10
-2 10 4 0 18 -20 23 -26 6z"/>
<path d="M447 1024 c-15 -8 -33 -14 -40 -13 -27 3 -47 -2 -47 -12 0 -5 5 -7
10 -4 6 3 10 2 10 -4 0 -6 8 -8 18 -5 14 5 15 4 2 -5 -13 -10 -13 -12 0 -22
13 -8 12 -10 -3 -7 -10 2 -18 8 -19 13 -1 10 -31 36 -36 30 -2 -1 5 -19 14
-39 11 -22 21 -32 25 -25 13 21 31 -2 25 -32 -4 -21 -2 -29 8 -29 15 0 29 27
21 40 -2 4 10 11 28 15 27 6 29 8 13 14 -14 5 -16 10 -8 15 23 14 12 25 -20
20 l-33 -6 37 24 c44 28 40 55 -5 32z"/>
<path d="M1273 1010 c-36 -22 -40 -32 -19 -49 15 -13 32 1 22 18 -9 15 18 31
34 21 22 -14 27 -12 33 10 7 27 -27 27 -70 0z"/>
<path d="M1447 1003 c-4 -3 -7 -15 -7 -25 0 -22 -24 -51 -34 -41 -3 4 -6 1 -6
-6 0 -9 6 -11 18 -6 9 4 26 9 37 11 11 2 21 8 23 14 4 12 22 13 42 0 13 -8 12
-11 -5 -25 -20 -16 -20 -16 0 -13 33 5 32 46 -2 60 -15 6 -35 18 -44 25 -9 7
-19 10 -22 6z m23 -44 c0 -6 -4 -7 -10 -4 -5 3 -10 11 -10 16 0 6 5 7 10 4 6
-3 10 -11 10 -16z"/>
<path d="M609 971 c11 -19 10 -20 -13 -11 -20 7 -24 6 -20 -5 3 -7 29 -23 57
-34 29 -12 66 -32 82 -46 l30 -25 -45 20 c-62 27 -75 26 -77 -9 -2 -28 0 -29
55 -35 31 -4 69 -9 85 -12 47 -10 30 18 -48 76 -41 30 -74 59 -75 63 0 11 41
-2 60 -19 9 -7 21 -10 29 -5 17 11 -41 47 -93 56 -37 7 -38 7 -27 -14z"/>
<path d="M1183 963 c-38 -15 -38 -13 -16 -61 l16 -37 6 30 c7 31 20 35 67 20
13 -4 29 1 45 14 23 19 23 21 7 37 -17 18 -18 17 -18 -4 0 -27 -19 -28 -51 -4
-21 17 -28 17 -56 5z"/>
<path d="M512 934 c-25 -17 -29 -52 -7 -60 8 -4 22 -1 30 6 10 8 15 9 15 2 0
-6 -10 -18 -22 -26 -21 -15 -23 -15 -36 9 -7 14 -16 25 -21 25 -8 0 -21 -80
-21 -136 0 -32 55 -154 70 -154 4 0 13 15 20 33 7 17 24 47 37 65 26 34 23 52
-6 52 -23 0 -43 -23 -41 -47 4 -32 0 -53 -8 -53 -12 0 -32 71 -32 113 0 37 3
40 53 78 43 33 50 53 26 83 -24 30 -27 31 -57 10z"/>
<path d="M1420 899 c-9 -17 -8 -23 7 -34 22 -16 34 -10 26 12 -5 12 -2 15 10
10 24 -9 31 10 8 22 -28 16 -39 14 -51 -10z"/>
<path d="M1117 875 c-15 -19 -27 -41 -27 -49 0 -9 -4 -16 -10 -16 -5 0 -13 -8
-19 -17 -8 -16 -4 -18 25 -19 38 -1 38 0 24 26 -8 15 -7 18 4 14 7 -3 25 5 39
18 25 22 25 24 8 50 l-17 27 -27 -34z"/>
<path d="M1206 901 c-4 -5 -3 -16 0 -25 5 -12 10 -13 30 -4 28 13 31 23 8 32
-22 8 -32 8 -38 -3z"/>
<path d="M1390 857 c0 -17 20 -37 37 -37 20 0 15 13 -12 33 -19 13 -25 15 -25
4z"/>
<path d="M1346 852 c-2 -4 -1 -14 5 -22 15 -26 10 -35 -22 -36 -16 -1 -36 -7
-42 -14 -10 -10 -9 -12 4 -7 9 3 33 2 53 -3 44 -10 51 -1 36 45 -12 36 -25 51
-34 37z"/>
<path d="M574 826 c-13 -33 0 -61 29 -64 l29 -3 -22 29 c-12 17 -19 35 -16 41
4 6 2 11 -4 11 -6 0 -13 -6 -16 -14z"/>
<path d="M982 819 c3 -27 40 -38 64 -19 21 18 17 32 -5 20 -26 -13 -42 -13
-38 1 1 6 -4 14 -11 16 -10 4 -13 -2 -10 -18z"/>
<path d="M1310 820 c-8 -5 -11 -12 -7 -16 4 -4 13 -2 19 4 15 15 7 24 -12 12z"/>
<path d="M806 800 c11 -41 37 -50 70 -25 18 14 17 15 -10 9 -23 -6 -33 -2 -48
17 l-19 24 7 -25z"/>
<path d="M632 789 c2 -7 10 -15 17 -17 8 -3 12 1 9 9 -2 7 -10 15 -17 17 -8 3
-12 -1 -9 -9z"/>
<path d="M704 784 c3 -8 6 -20 6 -25 0 -6 5 -7 10 -4 15 10 12 32 -6 39 -12 5
-15 2 -10 -10z"/>
<path d="M750 790 c0 -5 4 -10 9 -10 16 0 23 -38 11 -57 -9 -16 -10 -15 -8 6
4 31 -18 39 -27 10 -4 -12 -10 -17 -14 -12 -10 16 -67 23 -80 10 -6 -6 -11
-22 -11 -35 0 -19 5 -23 23 -20 14 2 21 9 21 21 -2 19 11 23 22 5 4 -6 -5 -21
-22 -35 -20 -16 -24 -23 -13 -23 9 0 31 -3 48 -6 27 -6 31 -4 25 12 -5 18 -5
18 6 2 6 -10 18 -18 25 -18 17 0 20 16 5 25 -5 3 -10 12 -10 18 0 7 5 4 11 -6
6 -9 14 -15 20 -12 5 4 9 1 9 -4 0 -17 34 -13 84 9 41 17 46 23 47 52 1 19 3
25 6 15 4 -15 11 -17 31 -12 15 4 35 14 45 22 16 15 14 17 -30 33 -44 16 -49
16 -65 1 -40 -37 -38 -37 -105 -32 -15 0 -23 7 -23 20 0 10 -7 22 -16 25 -21
8 -24 8 -24 -4z m78 -88 c2 -12 -1 -22 -7 -22 -6 0 -11 8 -11 18 -1 15 -2 15
-15 -2 -17 -23 -20 -14 -4 15 13 25 33 20 37 -9z"/>
<path d="M1309 765 c-1 -5 -1 -13 -1 -17 1 -3 -16 -4 -37 -1 -48 7 -61 -10
-32 -41 12 -12 21 -28 21 -34 0 -7 4 -12 9 -12 17 0 41 31 41 52 0 16 3 18 14
9 23 -19 26 2 5 29 -10 14 -19 21 -20 15z m-19 -56 c0 -10 -4 -19 -10 -19 -12
0 -31 35 -24 43 11 11 34 -5 34 -24z"/>
<path d="M597 691 c-6 -24 0 -31 27 -30 12 0 15 3 9 6 -7 2 -13 13 -13 24 0
25 -16 25 -23 0z"/>
<path d="M1163 672 c-16 -10 -9 -66 9 -70 8 -1 23 1 35 5 18 7 19 11 6 41 -13
32 -27 39 -50 24z m27 -52 c-8 -5 -17 -7 -19 -4 -3 3 1 9 9 14 8 5 17 7 19 4
3 -3 -1 -9 -9 -14z"/>
<path d="M1100 650 c0 -5 4 -10 9 -10 5 0 9 -6 8 -12 -1 -34 4 -48 18 -48 19
0 19 2 -2 45 -16 33 -33 46 -33 25z"/>
<path d="M590 631 c0 -6 7 -11 16 -11 11 0 14 -5 9 -17 -3 -10 -9 -30 -12 -45
-9 -44 14 -33 30 15 10 29 19 41 31 39 9 -2 16 2 16 8 0 5 -6 10 -14 10 -7 0
-28 3 -45 6 -20 4 -31 3 -31 -5z"/>
<path d="M1058 623 c-21 -5 -22 -13 -6 -48 15 -34 41 -34 32 0 -4 15 -1 32 6
40 13 16 5 18 -32 8z"/>
<path d="M982 596 c-13 -18 -22 -22 -30 -14 -6 6 -21 8 -34 5 -19 -5 -24 -13
-23 -39 0 -30 3 -33 33 -36 27 -3 32 0 32 17 0 18 3 19 18 10 21 -13 72 -5 72
11 0 5 -13 7 -30 4 -34 -7 -40 8 -14 37 9 10 11 19 5 23 -5 3 -18 -5 -29 -18z
m-45 -32 c-3 -3 -12 -4 -19 -1 -8 3 -5 6 6 6 11 1 17 -2 13 -5z"/>
<path d="M770 590 c0 -5 7 -10 15 -10 8 0 15 5 15 10 0 6 -7 10 -15 10 -8 0
-15 -4 -15 -10z"/>
<path d="M852 588 c5 -15 28 -23 28 -10 0 5 -7 13 -16 16 -10 4 -14 1 -12 -6z"/>
<path d="M688 550 c4 -44 32 -58 32 -16 0 13 8 27 18 31 15 7 14 9 -8 15 -43
14 -46 12 -42 -30z"/>
<path d="M825 580 c3 -5 8 -10 11 -10 2 0 4 5 4 10 0 6 -5 10 -11 10 -5 0 -7
-4 -4 -10z"/>
<path d="M767 548 c-7 -23 -1 -38 14 -38 5 0 9 14 9 30 0 35 -15 40 -23 8z"/>
<path d="M807 564 c-5 -6 4 -54 11 -54 2 0 11 8 18 18 13 16 13 16 14 0 0 -10
6 -18 14 -18 11 0 12 7 7 27 -5 20 -14 28 -33 30 -14 1 -28 0 -31 -3z"/>
</g>
</svg>
